<svg width="19" height="19" viewBox="0 0 19 19" fill="none" xmlns="http://www.w3.org/2000/svg">
<path d="M16.354 0.291321H2.354C1.244 0.291321 0.354004 1.18132 0.354004 2.29132V6.29132H2.354V2.29132H16.354V16.2913H2.354V12.2913H0.354004V16.2913C0.354004 16.8218 0.564718 17.3305 0.93979 17.7055C1.31486 18.0806 1.82357 18.2913 2.354 18.2913H16.354C16.8844 18.2913 17.3931 18.0806 17.7682 17.7055C18.1433 17.3305 18.354 16.8218 18.354 16.2913V2.29132C18.354 1.18132 17.454 0.291321 16.354 0.291321ZM7.434 12.8713L8.854 14.2913L13.854 9.29132L8.854 4.29132L7.434 5.70132L10.024 8.29132H0.354004V10.2913H10.024L7.434 12.8713Z" fill="black"/>
</svg>
